<svg width="265" height="305" viewBox="0 0 265 305" fill="none" xmlns="http://www.w3.org/2000/svg">
<path d="M185.432 105.102L185.432 105.103L185.432 105.102ZM185.432 105.102L185.433 105.102L185.432 105.102ZM186.279 104.571L186.279 104.571C186.27 104.557 186.263 104.541 186.258 104.526L186.179 104.55L186.25 104.427L186.256 104.429C186.259 104.416 186.264 104.403 186.271 104.391L186.274 104.385L187.44 102.366L186.574 101.866L188.905 97.8284L189.771 98.3284L190.144 97.6817L190.811 98.651L191.635 98.0843L194.764 102.634L193.94 103.201L194.519 104.043L193.8 104.097L193.876 105.094L188.971 105.465L188.896 104.468L186.444 104.654L186.442 104.654C186.426 104.655 186.41 104.654 186.395 104.651L186.201 105.632C185.99 105.59 185.795 105.491 185.636 105.347L185.741 105.232L185.774 105.251L185.862 105.099L186.309 104.607C186.297 104.597 186.287 104.585 186.279 104.571Z" stroke="white" stroke-width="2" stroke-dasharray="5 5"/>
<path d="M257.588 74.1675L257.588 74.1664C257.584 74.1551 257.58 74.1446 257.574 74.1348L258.457 73.6655C258.388 73.5341 258.294 73.4184 258.184 73.3234L257.532 74.0819C257.523 74.0744 257.514 74.0678 257.504 74.0621C257.503 74.0612 257.501 74.0604 257.5 74.0596C257.495 74.0572 257.491 74.0551 257.487 74.0532L257.885 73.136C257.804 73.1008 257.719 73.0747 257.63 73.0586L257.451 74.0426C257.445 74.0414 257.438 74.0405 257.43 74.04L257.429 74.04L254.994 73.8752L255.061 72.8774L250.19 72.5479L250.123 73.5456L245.252 73.216L245.319 72.2183L240.448 71.8887L240.381 72.8864L235.509 72.5568L235.577 71.5591L230.706 71.2295L230.638 72.2272L225.767 71.8976L225.835 70.8999L220.964 70.5703L220.896 71.5681L216.025 71.2385L216.092 70.2408L211.221 69.9112L211.154 70.9089L206.283 70.5793L206.35 69.5816L201.479 69.252L201.411 70.2497L196.54 69.9201L196.608 68.9224L191.737 68.5928L191.669 69.5906L186.798 69.261L186.866 68.2633L181.994 67.9337L181.927 68.9314L179.492 68.7666L257.588 74.1675ZM257.588 74.1675C257.593 74.1849 257.596 74.2021 257.596 74.2189L258.596 74.2175C258.596 74.4553 258.524 74.6882 258.39 74.8843L257.565 74.3186C257.555 74.3326 257.544 74.3454 257.529 74.3568L257.528 74.3581L255.507 75.9584L256.128 76.7424L252.086 79.943L251.465 79.1591L247.423 82.3598L248.044 83.1437L244.003 86.3444L243.382 85.5604L239.34 88.7611L239.961 89.545L235.919 92.7457L235.299 91.9617L231.257 95.1624L231.878 95.9463L227.836 99.147L227.215 98.3631L223.174 101.564L223.795 102.348L219.753 105.548L219.132 104.764L215.091 107.965L215.711 108.749L211.67 111.95L211.049 111.166L209.028 112.766L257.588 74.1675ZM178.978 67.8115C178.596 67.8945 178.243 68.0839 177.963 68.3577L178.661 69.0733C178.59 69.143 178.527 69.2233 178.476 69.3133C178.425 69.4033 178.388 69.4982 178.364 69.5953L177.392 69.3598C177.3 69.7406 177.317 70.1403 177.441 70.512L178.389 70.1956C178.421 70.2903 178.466 70.3816 178.525 70.4669L179.975 72.5751L179.151 73.1418L182.052 77.3591L182.876 76.7924L185.777 81.0097L184.953 81.5764L187.854 85.7937L188.678 85.227L189.768 86.8118L191.5 86.5245L191.664 87.511L196.383 86.7282L196.22 85.7417L200.939 84.9589L201.103 85.9454L205.822 85.1626L205.659 84.1761L210.378 83.3933L210.542 84.3798L215.261 83.5971L215.098 82.6105L219.817 81.8277L219.981 82.8143L224.7 82.0315L224.537 81.0449L229.256 80.2622L229.373 80.9689L229.59 80.9104L229.67 81.2072L234.139 80.4659L233.976 79.4794L236.335 79.088L236.761 81.0397L234.545 81.6401L234.485 81.4221L234.303 81.4524L234.179 80.7031L229.851 81.8756L230.113 82.8408L225.681 84.0415L225.419 83.0763L220.987 84.277L221.249 85.2422L216.817 86.443L216.555 85.4778L212.123 86.6785L212.385 87.6437L207.953 88.8444L207.691 87.8792L203.259 89.08L203.521 90.0452L199.089 91.2459L198.827 90.2807L194.395 91.4814L194.657 92.4466L193.803 92.6779L194.208 93.2663L193.384 93.833L195.793 97.3354L196.617 96.7687L199.026 100.271L198.202 100.838L200.612 104.34L201.435 103.774L203.845 107.276L203.021 107.843L205.43 111.345L206.254 110.779L207.459 112.53L207.46 112.532C207.482 112.564 207.506 112.595 207.532 112.625L206.776 113.28C206.878 113.398 206.992 113.503 207.116 113.594L207.709 112.789C207.742 112.813 207.776 112.835 207.81 112.855C207.84 112.872 207.871 112.888 207.902 112.902L207.484 113.811C207.602 113.865 207.725 113.909 207.853 113.94L208.094 112.97C208.126 112.978 208.159 112.984 208.192 112.989C208.266 113 208.34 113.003 208.413 112.999L208.47 113.998C208.755 113.981 209.034 113.907 209.29 113.779L208.841 112.885C208.907 112.852 208.97 112.812 209.028 112.766L178.978 67.8115ZM178.978 67.8115L179.19 68.7888C179.287 68.7677 179.389 68.7598 179.491 68.7666L178.978 67.8115Z" stroke="white" stroke-width="2" stroke-dasharray="5 5"/>
<path d="M249.171 101.221C249.051 100.811 248.703 100.51 248.282 100.454L178.191 90.9899C177.774 90.9337 177.361 91.1244 177.128 91.4796C176.896 91.8348 176.887 92.2907 177.105 92.6507L185.236 106.084L177.974 128.836C177.919 128.995 177.902 129.162 177.921 129.324C177.923 129.341 177.925 129.353 177.927 129.366C177.97 129.632 178.105 129.876 178.324 130.049C178.352 130.071 178.381 130.092 178.41 130.111C178.429 130.123 178.449 130.134 178.468 130.145C178.649 130.246 178.85 130.29 179.047 130.279C179.114 130.276 179.181 130.266 179.247 130.25C179.268 130.245 179.286 130.24 179.304 130.234L193.344 126.138C193.923 125.97 194.26 125.362 194.098 124.782C193.936 124.201 193.335 123.867 192.757 124.036L181.728 127.254L190.601 114.914L205.461 138.856C205.611 139.096 205.837 139.256 206.088 139.325C206.116 139.333 206.141 139.339 206.167 139.344C206.425 139.394 206.699 139.352 206.94 139.206C206.952 139.198 206.963 139.191 206.974 139.184C207.025 139.151 207.071 139.115 207.113 139.077L248.838 102.36C249.161 102.076 249.291 101.631 249.171 101.221ZM180.158 93.4672L237.447 101.203L187.014 104.794L180.158 93.4672ZM190.498 111.876C190.369 111.899 190.242 111.945 190.123 112.016C190.108 112.026 190.093 112.035 190.078 112.045C189.957 112.126 189.858 112.226 189.78 112.339L182.118 122.995L187.231 106.972L230.791 103.87L190.498 111.876ZM206.638 136.6L192.436 113.719L244.367 103.399L206.638 136.6Z" fill="white"/>
<path d="M183.678 113.365C183.678 113.365 153.908 117.613 137.486 126.72C106.407 143.955 52.4131 184.502 83.9676 200.32C111.413 214.078 135.84 187.445 131.93 164.934C127.412 138.926 80.2119 164.822 53.6693 181.26C29.4335 196.27 17.2148 216.912 17.2148 216.912" stroke="white" stroke-width="2" stroke-linecap="round" stroke-dasharray="5 5"/>
</svg>
