<svg width="973" height="312" viewBox="0 0 973 312" fill="none" xmlns="http://www.w3.org/2000/svg">
<g filter="url(#filter0_d_38_133)">
<rect x="49.9999" y="46.0662" width="873" height="211" rx="15" fill="#F8835E"/>
</g>
<mask id="mask0_38_133" style="mask-type:alpha" maskUnits="userSpaceOnUse" x="49" y="46" width="874" height="212">
<rect x="49.9999" y="46.0663" width="873" height="211" rx="15" fill="#EE3147"/>
</mask>
<g mask="url(#mask0_38_133)">
<g opacity="0.3">
<path d="M215.68 270.503C215.68 270.503 260.862 227.849 327.762 230.819C394.661 233.788 352.129 150.893 387.13 130.685C422.131 110.478 457.694 130.776 492.695 110.568C527.696 90.3607 527.899 49.4123 562.9 29.2046C597.901 8.99678 621.298 61.3455 679.302 27.8569C737.306 -5.63181 701.642 -32.2442 745.394 -71.5237" stroke="white" stroke-width="2" stroke-linecap="round" stroke-dasharray="2 10"/>
<path d="M680.536 37.1471C712.559 24.6525 706.924 92.3198 727.273 96.3591C747.622 100.398 760.211 64.3044 780.559 68.3436C800.908 72.3828 807.771 92.2505 828.12 96.2898C848.469 100.329 848.727 72.7734 884.915 77.7161" stroke="white" stroke-width="4" stroke-linecap="round" stroke-dasharray="8 8"/>
<path d="M732.014 221.63C733.775 221.488 735.08 219.93 734.931 218.149L734.931 218.148L734.93 218.131C734.928 218.108 734.926 218.067 734.922 218.01C734.916 217.896 734.907 217.716 734.9 217.478C734.886 217.001 734.882 216.299 734.92 215.437C734.997 213.7 735.247 211.381 735.917 208.985C737.257 204.195 740.107 199.529 746.308 197.937C752.763 196.28 758.752 198.887 765.988 202.189L766.374 202.365C770.158 204.093 774.318 205.992 778.793 206.931C782.306 207.668 786.013 207.813 789.886 206.818C793.742 205.828 796.91 203.928 799.625 201.604C803.111 198.62 805.851 194.938 808.344 191.589L808.597 191.249C813.348 184.869 817.339 179.699 823.794 178.041C830.249 176.384 836.238 178.992 843.474 182.293L843.86 182.469C847.693 184.22 851.912 186.146 856.453 187.071C859.914 187.777 863.563 187.901 867.372 186.923C871.164 185.949 874.291 184.095 876.976 181.823C880.527 178.819 883.305 175.085 885.83 171.693L886.083 171.353C890.834 164.973 894.825 159.803 901.28 158.146C907.529 156.541 912.597 159.233 916.394 162.774C918.284 164.535 919.761 166.429 920.77 167.895C921.271 168.623 921.648 169.234 921.895 169.653C922.018 169.863 922.108 170.023 922.165 170.126C922.193 170.178 922.213 170.214 922.224 170.235L922.232 170.25L922.234 170.253L922.234 170.254L922.235 170.255C923.058 171.84 924.991 172.459 926.556 171.639C928.122 170.818 928.726 168.865 927.904 167.277L925.068 168.763C927.904 167.277 927.903 167.275 927.903 167.274L927.901 167.271L927.898 167.264L927.888 167.246L927.858 167.19C927.834 167.144 927.8 167.082 927.758 167.004C927.672 166.849 927.551 166.633 927.393 166.366C927.079 165.832 926.62 165.09 926.021 164.219C924.829 162.486 923.051 160.198 920.721 158.026C916.079 153.698 908.849 149.512 899.669 151.869C890.862 154.131 885.644 161.142 881.211 167.099L880.958 167.439C876.207 173.819 872.215 178.989 865.76 180.646C859.306 182.304 853.317 179.696 846.08 176.394L845.694 176.218C838.939 173.134 830.989 169.504 822.183 171.765C813.376 174.026 808.158 181.037 803.725 186.995L803.472 187.335C798.721 193.714 794.729 198.885 788.274 200.542C781.82 202.199 775.831 199.592 768.594 196.29L768.208 196.114C761.453 193.029 753.503 189.399 744.697 191.661C735.468 194.03 731.437 201.167 729.753 207.189C728.912 210.198 728.614 213.037 728.522 215.107C728.475 216.148 728.48 217.011 728.498 217.625C728.506 217.932 728.518 218.177 728.528 218.353C728.534 218.44 728.538 218.511 728.542 218.562L728.547 218.626L728.548 218.647L728.549 218.655L728.549 218.658C728.55 218.659 728.55 218.661 731.74 218.403L728.55 218.661C728.701 220.443 730.252 221.773 732.014 221.63Z" fill="white"/>
<path d="M741.781 244.824C741.929 246.605 740.624 248.162 738.863 248.305C737.101 248.447 735.55 247.118 735.399 245.335L738.589 245.077C735.399 245.335 735.399 245.334 735.398 245.332L735.398 245.329L735.398 245.321L735.396 245.3L735.391 245.237C735.387 245.185 735.383 245.115 735.378 245.027C735.367 244.852 735.355 244.606 735.347 244.299C735.329 243.686 735.324 242.823 735.371 241.782C735.463 239.711 735.761 236.872 736.602 233.863C738.286 227.841 742.317 220.705 751.546 218.335C760.352 216.074 768.302 219.704 775.057 222.788L775.443 222.964C782.68 226.266 788.669 228.874 795.123 227.216C801.578 225.559 805.57 220.389 810.321 214.009L810.574 213.669C815.007 207.712 820.225 200.701 829.032 198.44C837.838 196.178 845.788 199.808 852.543 202.893L852.929 203.069C860.166 206.371 866.155 208.978 872.609 207.321C879.064 205.663 883.056 200.493 887.807 194.113L888.06 193.773C892.493 187.816 897.711 180.805 906.518 178.544C915.698 176.187 922.928 180.372 927.57 184.7C929.9 186.873 931.678 189.161 932.87 190.893C933.469 191.764 933.928 192.506 934.242 193.04C934.4 193.308 934.521 193.524 934.607 193.679C934.649 193.756 934.683 193.818 934.707 193.864L934.737 193.92L934.747 193.939L934.75 193.946L934.752 193.949C934.752 193.95 934.753 193.951 931.917 195.438L934.753 193.951C935.575 195.539 934.971 197.493 933.405 198.314C931.84 199.134 929.907 198.514 929.084 196.93L929.083 196.929L929.083 196.927L929.081 196.924L929.073 196.91C929.062 196.889 929.042 196.852 929.014 196.801C928.958 196.698 928.867 196.537 928.744 196.328C928.497 195.908 928.12 195.297 927.619 194.569C926.61 193.103 925.133 191.21 923.243 189.448C919.446 185.908 914.378 183.216 908.129 184.82C901.675 186.478 897.683 191.648 892.932 198.027L892.679 198.368C890.154 201.76 887.376 205.494 883.825 208.498C881.14 210.769 878.013 212.623 874.221 213.597C870.412 214.575 866.763 214.451 863.302 213.746C858.761 212.82 854.543 210.894 850.709 209.144L850.323 208.968C843.087 205.666 837.098 203.059 830.643 204.716C824.189 206.373 820.197 211.544 815.446 217.923L815.193 218.263C812.7 221.612 809.96 225.294 806.474 228.278C803.759 230.602 800.591 232.503 796.735 233.493C792.862 234.487 789.155 234.342 785.642 233.606C781.167 232.667 777.008 230.768 773.223 229.04L772.837 228.864C765.601 225.562 759.612 222.954 753.157 224.612C746.956 226.204 744.106 230.869 742.766 235.659C742.096 238.056 741.846 240.375 741.769 242.111C741.731 242.973 741.736 243.676 741.749 244.152C741.756 244.39 741.765 244.57 741.771 244.685C741.775 244.742 741.777 244.782 741.779 244.805L741.78 244.822L741.781 244.824Z" fill="white"/>
<path d="M748.629 271.497L748.63 271.497C748.779 273.278 747.474 274.837 745.713 274.979C743.95 275.122 742.399 273.792 742.248 272.01L745.439 271.752C742.248 272.01 742.248 272.008 742.248 272.007L742.247 272.004L742.247 271.996L742.245 271.975L742.24 271.911C742.236 271.86 742.232 271.789 742.227 271.702C742.216 271.526 742.205 271.281 742.196 270.974C742.178 270.36 742.173 269.497 742.22 268.456C742.312 266.386 742.61 263.547 743.451 260.538C745.135 254.516 749.166 247.379 758.395 245.01C767.202 242.748 775.151 246.378 781.906 249.463L782.292 249.639C789.529 252.941 795.518 255.548 801.972 253.891C808.427 252.234 812.419 247.063 817.17 240.684L817.423 240.343C821.856 234.386 827.074 227.375 835.881 225.114C844.688 222.853 852.637 226.483 859.392 229.567L859.778 229.743C867.015 233.045 873.004 235.653 879.458 233.995C885.913 232.338 889.905 227.168 894.656 220.788L894.909 220.448C899.342 214.49 904.56 207.48 913.367 205.218C922.547 202.861 929.777 207.047 934.419 211.375C936.749 213.547 938.527 215.835 939.719 217.568C940.318 218.439 940.777 219.181 941.091 219.715C941.249 219.982 941.371 220.198 941.456 220.353C941.498 220.43 941.532 220.493 941.556 220.539L941.586 220.595L941.596 220.613L941.599 220.62L941.601 220.623C941.602 220.624 941.602 220.626 938.766 222.112L941.602 220.626C942.424 222.214 941.82 224.167 940.254 224.988C938.689 225.808 936.756 225.189 935.933 223.604L935.932 223.603L935.932 223.602L935.93 223.599L935.922 223.584C935.917 223.575 935.911 223.562 935.902 223.546C935.892 223.527 935.879 223.503 935.863 223.475C935.807 223.372 935.716 223.212 935.593 223.002C935.346 222.583 934.969 221.972 934.468 221.244C933.459 219.778 931.982 217.884 930.092 216.123C926.295 212.582 921.227 209.89 914.978 211.495C908.524 213.152 904.532 218.322 899.781 224.702L899.528 225.042C897.003 228.434 894.225 232.168 890.674 235.172C887.989 237.444 884.862 239.298 881.07 240.272C877.261 241.25 873.612 241.126 870.151 240.42C865.61 239.495 861.392 237.569 857.558 235.818L857.172 235.642C849.936 232.341 843.947 229.733 837.492 231.39C831.038 233.048 827.046 238.218 822.295 244.598L822.042 244.938C819.549 248.287 816.809 251.969 813.323 254.953C810.608 257.277 807.44 259.177 803.584 260.167C799.711 261.162 796.004 261.017 792.491 260.28C788.016 259.341 783.857 257.442 780.072 255.714L779.686 255.538C772.45 252.236 766.461 249.629 760.006 251.286C753.805 252.878 750.955 257.544 749.615 262.334C748.945 264.73 748.696 267.049 748.618 268.786C748.58 269.648 748.585 270.35 748.598 270.827C748.605 271.064 748.614 271.245 748.62 271.359C748.624 271.416 748.627 271.457 748.628 271.48L748.629 271.497Z" fill="white"/>
</g>
</g>
<path d="M216.678 103.365C216.678 103.365 186.908 107.613 170.486 116.72C139.407 133.955 85.4131 174.502 116.968 190.32C144.413 204.078 168.84 177.445 164.93 154.934C160.412 128.926 113.212 154.822 86.6692 171.26C62.4335 186.27 50.2148 206.912 50.2148 206.912" stroke="white" stroke-width="2" stroke-linecap="round" stroke-dasharray="5 5"/>
<path d="M219.279 94.5711L219.279 94.5711C219.27 94.5566 219.263 94.5415 219.258 94.5261L219.179 94.5496L219.25 94.4275L219.256 94.4291C219.259 94.4162 219.264 94.4036 219.271 94.3913L219.274 94.385L220.44 92.3662L219.574 91.8662L221.905 87.8285L222.771 88.3285L223.144 87.6818L223.811 88.6511L224.635 88.0844L227.764 92.634L226.94 93.2007L227.519 94.0428L226.8 94.0972L226.876 95.0943L221.971 95.4653L221.896 94.4681L219.444 94.6536L219.442 94.6537C219.426 94.655 219.41 94.654 219.395 94.6509L219.201 95.6319C218.99 95.5902 218.795 95.4916 218.636 95.3473L218.741 95.2319L218.774 95.251L218.862 95.0989L219.309 94.6076C219.297 94.597 219.287 94.5848 219.279 94.5711Z" stroke="white" stroke-width="2" stroke-dasharray="5 5"/>
<path d="M290.588 64.1676L290.588 64.1665C290.584 64.1552 290.58 64.1447 290.574 64.1349L291.457 63.6656C291.388 63.5343 291.294 63.4186 291.184 63.3235L290.532 64.082C290.523 64.0745 290.514 64.0679 290.504 64.0622C290.503 64.0614 290.501 64.0605 290.5 64.0597C290.495 64.0573 290.491 64.0552 290.487 64.0533L290.885 63.1361C290.804 63.1009 290.719 63.0748 290.63 63.0587L290.451 64.0427C290.445 64.0415 290.438 64.0406 290.43 64.0401L290.429 64.0401L287.994 63.8753L288.061 62.8776L283.19 62.548L283.123 63.5457L278.252 63.2161L278.319 62.2184L273.448 61.8888L273.381 62.8865L268.509 62.5569L268.577 61.5592L263.706 61.2296L263.638 62.2274L258.767 61.8978L258.835 60.9001L253.964 60.5705L253.896 61.5682L249.025 61.2386L249.092 60.2409L244.221 59.9113L244.154 60.909L239.283 60.5794L239.35 59.5817L234.479 59.2521L234.411 60.2498L229.54 59.9203L229.608 58.9225L224.737 58.593L224.669 59.5907L219.798 59.2611L219.866 58.2634L214.994 57.9338L214.927 58.9315L212.492 58.7668C212.492 58.7668 212.492 58.7668 212.492 58.7668C212.389 58.7599 212.288 58.7677 212.19 58.7889L211.978 57.8116C211.596 57.8946 211.243 58.084 210.963 58.3578L211.661 59.0734C211.59 59.1431 211.527 59.2235 211.476 59.3134C211.425 59.4034 211.388 59.4983 211.364 59.5954L210.392 59.3599C210.3 59.7407 210.317 60.1404 210.441 60.5121L211.389 60.1957C211.421 60.2904 211.466 60.3817 211.525 60.467L212.975 62.5752L212.151 63.142L215.052 67.3593L215.876 66.7925L218.777 71.0098L217.953 71.5766L220.854 75.7939L221.678 75.2271L222.768 76.812L224.5 76.5246L224.664 77.5111L229.383 76.7283L229.22 75.7418L233.939 74.959L234.103 75.9455L238.822 75.1628L238.659 74.1762L243.378 73.3934L243.542 74.38L248.261 73.5972L248.098 72.6106L252.817 71.8279L252.981 72.8144L257.7 72.0316L257.537 71.0451L262.256 70.2623L262.373 70.9691L262.59 70.9105L262.67 71.2073L267.139 70.466L266.976 69.4795L269.335 69.0881L269.761 71.0398L267.545 71.6402L267.485 71.4222L267.303 71.4525L267.179 70.7033L262.851 71.8757L263.113 72.8409L258.681 74.0416L258.419 73.0764L253.987 74.2772L254.249 75.2424L249.817 76.4431L249.555 75.4779L245.123 76.6786L245.385 77.6438L240.953 78.8446L240.691 77.8793L236.259 79.0801L236.521 80.0453L232.089 81.246L231.827 80.2808L227.395 81.4815L227.657 82.4467L226.803 82.678L227.208 83.2664L226.384 83.8331L228.793 87.3356L229.617 86.7688L232.026 90.2713L231.202 90.838L233.612 94.3405L234.435 93.7737L236.845 97.2762L236.021 97.8429L238.43 101.345L239.254 100.779L240.459 102.53L240.46 102.532C240.482 102.564 240.506 102.595 240.532 102.625L239.776 103.28C239.878 103.398 239.992 103.503 240.116 103.594L240.709 102.789C240.742 102.813 240.776 102.835 240.81 102.855C240.84 102.872 240.871 102.888 240.902 102.903L240.484 103.811C240.602 103.865 240.725 103.909 240.853 103.94L241.094 102.97C241.096 102.97 241.098 102.971 241.1 102.971C241.116 102.975 241.131 102.979 241.147 102.982C241.149 102.982 241.151 102.982 241.153 102.983C241.166 102.985 241.179 102.988 241.192 102.99C241.266 103 241.34 103.004 241.413 102.999L241.47 103.998C241.755 103.981 242.034 103.907 242.29 103.779L241.841 102.885C241.907 102.852 241.97 102.812 242.028 102.766L290.588 64.1676ZM290.588 64.1676C290.593 64.185 290.596 64.2022 290.596 64.219L291.596 64.2176C291.596 64.4554 291.524 64.6883 291.39 64.8845L290.565 64.3187C290.555 64.3327 290.544 64.3456 290.529 64.3569L290.528 64.3582L288.507 65.9586L289.128 66.7425L285.086 69.9432L284.465 69.1592L280.423 72.3599L281.044 73.1438L277.003 76.3445L276.382 75.5605L272.34 78.7612L272.961 79.5451L268.919 82.7458L268.299 81.9619L264.257 85.1625L264.878 85.9465L260.836 89.1471L260.215 88.3632L256.174 91.5638L256.795 92.3478L252.753 95.5485L252.132 94.7645L248.091 97.9652L248.711 98.7491L244.67 101.95L244.049 101.166L242.028 102.766L290.588 64.1676Z" stroke="white" stroke-width="2" stroke-dasharray="5 5"/>
<path d="M282.171 91.2207C282.051 90.8105 281.703 90.5105 281.282 90.4539L211.191 80.9899C210.774 80.9337 210.361 81.1244 210.128 81.4796C209.896 81.8348 209.887 82.2907 210.105 82.6507L218.236 96.0838L210.974 118.836C210.919 118.995 210.902 119.162 210.921 119.324C210.923 119.341 210.925 119.353 210.927 119.366C210.97 119.632 211.105 119.876 211.324 120.049C211.352 120.071 211.381 120.092 211.41 120.111C211.429 120.123 211.449 120.134 211.468 120.145C211.649 120.246 211.85 120.29 212.047 120.279C212.114 120.276 212.181 120.266 212.247 120.25C212.268 120.245 212.286 120.24 212.304 120.234L226.344 116.138C226.923 115.97 227.26 115.362 227.098 114.782C226.936 114.201 226.335 113.867 225.757 114.036L214.728 117.254L223.601 104.914L238.461 128.856C238.611 129.096 238.837 129.256 239.088 129.325C239.116 129.333 239.141 129.339 239.167 129.344C239.425 129.394 239.699 129.352 239.94 129.206C239.952 129.198 239.963 129.191 239.974 129.184C240.025 129.151 240.071 129.115 240.113 129.077L281.838 92.3595C282.161 92.0759 282.291 91.6307 282.171 91.2207ZM213.158 83.4672L270.447 91.2026L220.014 94.7938L213.158 83.4672ZM223.498 101.876C223.369 101.899 223.242 101.945 223.123 102.016C223.108 102.026 223.093 102.035 223.078 102.045C222.957 102.126 222.858 102.226 222.78 102.339L215.118 112.995L220.231 96.9716L263.791 93.8698L223.498 101.876ZM239.638 126.6L225.436 103.719L277.367 93.3993L239.638 126.6Z" fill="white"/>
<defs>
<filter id="filter0_d_38_133" x="-0.00012207" y="0.0661621" width="973" height="311" filterUnits="userSpaceOnUse" color-interpolation-filters="sRGB">
<feFlood flood-opacity="0" result="BackgroundImageFix"/>
<feColorMatrix in="SourceAlpha" type="matrix" values="0 0 0 0 0 0 0 0 0 0 0 0 0 0 0 0 0 0 127 0" result="hardAlpha"/>
<feOffset dy="4"/>
<feGaussianBlur stdDeviation="25"/>
<feComposite in2="hardAlpha" operator="out"/>
<feColorMatrix type="matrix" values="0 0 0 0 0 0 0 0 0 0 0 0 0 0 0 0 0 0 0.1 0"/>
<feBlend mode="normal" in2="BackgroundImageFix" result="effect1_dropShadow_38_133"/>
<feBlend mode="normal" in="SourceGraphic" in2="effect1_dropShadow_38_133" result="shape"/>
</filter>
</defs>
</svg>
